HIERARCHY
ROOT Hips
{
	OFFSET 0.000000 35.082581 0.000000
	CHANNELS 6 Xposition Yposition Zposition Xrotation Yrotation Zrotation 
	JOINT Spine
	{
		OFFSET 0.000000 6.876099 0.125700
		CHANNELS 3 Xrotation Yrotation Zrotation
		JOINT Spine1
		{
			OFFSET 0.000000 5.730043 0.104720
			CHANNELS 3 Xrotation Yrotation Zrotation
			JOINT Spine1_split
			{
				OFFSET 0.000000 5.730043 0.104720
				CHANNELS 3 Xrotation Yrotation Zrotation
				JOINT Spine2
				{
					OFFSET 0.000000 5.730043 0.104720
					CHANNELS 3 Xrotation Yrotation Zrotation
					JOINT Neck
					{
						OFFSET 0.000000 10.314075 0.188496
						CHANNELS 3 Xrotation Yrotation Zrotation
						JOINT Head
						{
							OFFSET 0.000000 7.643700 -2.377400
							CHANNELS 3 Xrotation Yrotation Zrotation
							JOINT HeadTop_End
							{
								OFFSET 0.000000 43.788605 -13.619600
								CHANNELS 3 Xrotation Yrotation Zrotation
								End Site
								{
									OFFSET 0.000000 0.000000 0.000000
								}
							}
						}
					}
					JOINT LeftShoulder
					{
						OFFSET 2.196100 4.412489 0.087492
						CHANNELS 3 Xrotation Yrotation Zrotation
						JOINT LeftShoulder_split
						{
							OFFSET 2.196100 4.412489 0.087492
							CHANNELS 3 Xrotation Yrotation Zrotation
							JOINT LeftArm
							{
								OFFSET 8.771219 -2.981674 -0.026999
								CHANNELS 3 Xrotation Yrotation Zrotation
								JOINT LeftForeArm
								{
									OFFSET 8.512804 0.000000 -0.000000
									CHANNELS 3 Xrotation Yrotation Zrotation
									JOINT LeftHand
									{
										OFFSET 18.484802 0.000000 -0.000000
										CHANNELS 3 Xrotation Yrotation Zrotation
										JOINT LeftHandThumb1
										{
											OFFSET 2.499420 -1.158070 2.653252
											CHANNELS 3 Xrotation Yrotation Zrotation
											JOINT LeftHandThumb2
											{
												OFFSET 2.370079 -1.368366 1.368366
												CHANNELS 3 Xrotation Yrotation Zrotation
												JOINT LeftHandThumb3
												{
													OFFSET 2.676727 -1.545410 1.545409
													CHANNELS 3 Xrotation Yrotation Zrotation
													JOINT LeftHandThumb4
													{
														OFFSET 1.692226 -0.977005 0.977007
														CHANNELS 3 Xrotation Yrotation Zrotation
														End Site
														{
															OFFSET 0.000000 0.000000 0.000000
														}
													}
												}
											}
										}
										JOINT LeftHandIndex1
										{
											OFFSET 7.924831 -0.457527 2.345128
											CHANNELS 3 Xrotation Yrotation Zrotation
											JOINT LeftHandIndex2
											{
												OFFSET 3.643303 0.000000 0.000000
												CHANNELS 3 Xrotation Yrotation Zrotation
												JOINT LeftHandIndex3
												{
													OFFSET 3.810799 0.000000 0.000000
													CHANNELS 3 Xrotation Yrotation Zrotation
													JOINT LeftHandIndex4
													{
														OFFSET 2.403702 0.000000 0.000000
														CHANNELS 3 Xrotation Yrotation Zrotation
														End Site
														{
															OFFSET 0.000000 0.000000 0.000000
														}
													}
												}
											}
										}
										JOINT LeftHandMiddle1
										{
											OFFSET 8.563995 0.000000 -0.000000
											CHANNELS 3 Xrotation Yrotation Zrotation
											JOINT LeftHandMiddle2
											{
												OFFSET 3.861618 0.000000 0.000000
												CHANNELS 3 Xrotation Yrotation Zrotation
												JOINT LeftHandMiddle3
												{
													OFFSET 3.701603 0.000000 0.000000
													CHANNELS 3 Xrotation Yrotation Zrotation
													JOINT LeftHandMiddle4
													{
														OFFSET 2.322544 0.000000 0.000000
														CHANNELS 3 Xrotation Yrotation Zrotation
														End Site
														{
															OFFSET 0.000000 0.000000 0.000000
														}
													}
												}
											}
										}
										JOINT LeftHandRing1
										{
											OFFSET 8.426460 -0.424637 -3.286992
											CHANNELS 3 Xrotation Yrotation Zrotation
											JOINT LeftHandRing2
											{
												OFFSET 3.126408 0.000000 0.000000
												CHANNELS 3 Xrotation Yrotation Zrotation
												JOINT LeftHandRing3
												{
													OFFSET 3.085026 0.000000 0.000000
													CHANNELS 3 Xrotation Yrotation Zrotation
													JOINT LeftHandRing4
													{
														OFFSET 1.644005 0.000000 0.000000
														CHANNELS 3 Xrotation Yrotation Zrotation
														End Site
														{
															OFFSET 0.000000 0.000000 0.000000
														}
													}
												}
											}
										}
									}
								}
							}
						}
					}
					JOINT RightShoulder
					{
						OFFSET -2.196100 4.412496 0.070690
						CHANNELS 3 Xrotation Yrotation Zrotation
						JOINT RightShoulder_split
						{
							OFFSET -2.196100 4.412496 0.070690
							CHANNELS 3 Xrotation Yrotation Zrotation
							JOINT RightArm
							{
								OFFSET -8.771282 -2.981682 -0.094208
								CHANNELS 3 Xrotation Yrotation Zrotation
								JOINT RightForeArm
								{
									OFFSET -8.494598 0.000000 0.000000
									CHANNELS 3 Xrotation Yrotation Zrotation
									JOINT RightHand
									{
										OFFSET -18.483803 0.000000 0.000001
										CHANNELS 3 Xrotation Yrotation Zrotation
										JOINT RightHandThumb1
										{
											OFFSET -2.527351 -1.008072 2.575253
											CHANNELS 3 Xrotation Yrotation Zrotation
											JOINT RightHandThumb2
											{
												OFFSET -2.321518 -1.340328 1.340329
												CHANNELS 3 Xrotation Yrotation Zrotation
												JOINT RightHandThumb3
												{
													OFFSET -2.657753 -1.534454 1.534455
													CHANNELS 3 Xrotation Yrotation Zrotation
													JOINT RightHandThumb4
													{
														OFFSET -1.807510 -1.043568 1.043567
														CHANNELS 3 Xrotation Yrotation Zrotation
														End Site
														{
															OFFSET 0.000000 0.000000 0.000000
														}
													}
												}
											}
										}
										JOINT RightHandIndex1
										{
											OFFSET -8.811420 0.015533 2.887987
											CHANNELS 3 Xrotation Yrotation Zrotation
											JOINT RightHandIndex2
											{
												OFFSET -3.537502 0.000000 0.000000
												CHANNELS 3 Xrotation Yrotation Zrotation
												JOINT RightHandIndex3
												{
													OFFSET -3.356201 0.000000 0.000000
													CHANNELS 3 Xrotation Yrotation Zrotation
													JOINT RightHandIndex4
													{
														OFFSET -1.933098 0.000000 0.000000
														CHANNELS 3 Xrotation Yrotation Zrotation
														End Site
														{
															OFFSET 0.000000 0.000000 0.000000
														}
													}
												}
											}
										}
										JOINT RightHandMiddle1
										{
											OFFSET -8.178135 0.000000 0.000000
											CHANNELS 3 Xrotation Yrotation Zrotation
											JOINT RightHandMiddle2
											{
												OFFSET -3.901302 0.000000 0.000000
												CHANNELS 3 Xrotation Yrotation Zrotation
												JOINT RightHandMiddle3
												{
													OFFSET -3.909599 0.000000 0.000000
													CHANNELS 3 Xrotation Yrotation Zrotation
													JOINT RightHandMiddle4
													{
														OFFSET -2.376003 0.000000 0.000000
														CHANNELS 3 Xrotation Yrotation Zrotation
														End Site
														{
															OFFSET 0.000000 0.000000 0.000000
														}
													}
												}
											}
										}
										JOINT RightHandRing1
										{
											OFFSET -7.559013 0.014137 -2.865403
											CHANNELS 3 Xrotation Yrotation Zrotation
											JOINT RightHandRing2
											{
												OFFSET -3.449306 0.000000 0.000000
												CHANNELS 3 Xrotation Yrotation Zrotation
												JOINT RightHandRing3
												{
													OFFSET -3.362106 0.000000 0.000000
													CHANNELS 3 Xrotation Yrotation Zrotation
													JOINT RightHandRing4
													{
														OFFSET -2.076401 0.000000 0.000000
														CHANNELS 3 Xrotation Yrotation Zrotation
														End Site
														{
															OFFSET 0.000000 0.000000 0.000000
														}
													}
												}
											}
										}
									}
								}
							}
						}
					}
				}
			}
		}
	}
	JOINT LeftUpLeg
	{
		OFFSET 10.205400 -3.823500 0.155100
		CHANNELS 3 Xrotation Yrotation Zrotation
		JOINT LeftLeg
		{
			OFFSET 0.708757 -12.982077 0.567790
			CHANNELS 3 Xrotation Yrotation Zrotation
			JOINT LeftFoot
			{
				OFFSET -0.708756 -10.717838 -2.184338
				CHANNELS 3 Xrotation Yrotation Zrotation
				JOINT LeftToeBase
				{
					OFFSET 0.108149 -7.191104 7.560241
					CHANNELS 3 Xrotation Yrotation Zrotation
					JOINT LeftToe_End
					{
						OFFSET 0.070230 0.081724 4.490308
						CHANNELS 3 Xrotation Yrotation Zrotation
						End Site
						{
							OFFSET 0.000000 0.000000 0.000000
						}
					}
				}
			}
		}
	}
	JOINT RightUpLeg
	{
		OFFSET -10.205400 -3.823500 0.005500
		CHANNELS 3 Xrotation Yrotation Zrotation
		JOINT RightLeg
		{
			OFFSET -0.708756 -12.982134 0.610632
			CHANNELS 3 Xrotation Yrotation Zrotation
			JOINT RightFoot
			{
				OFFSET 0.708754 -10.717769 -1.945823
				CHANNELS 3 Xrotation Yrotation Zrotation
				JOINT RightToeBase
				{
					OFFSET -0.108140 -7.191069 7.372968
					CHANNELS 3 Xrotation Yrotation Zrotation
					JOINT RightToe_End
					{
						OFFSET -0.070227 0.081735 4.479403
						CHANNELS 3 Xrotation Yrotation Zrotation
						End Site
						{
							OFFSET 0.000000 0.000000 0.000000
						}
					}
				}
			}
		}
	}
}
MOTION
Frames: 5
Frame Time: 0.016667
4.919121 5.173538 85.255646 -98.554111 -0.091315 -0.111793 3.643431 -0.731476 0.589653 0.996824 -0.409160 0.102272 0.000000 0.000000 0.000000 1.002243 -0.404640 0.123115 11.869398 -0.692219 0.070575 20.968594 -3.405665 -0.139370 -0.000001 0.000000 -0.000000 -0.224989 -17.471182 -6.131987 0.000000 0.000000 0.000000 63.391464 -14.457689 -43.757989 0.000002 -33.190348 -0.000011 11.926592 0.396549 4.408010 -18.975544 -6.392786 8.507214 7.278160 22.325636 2.208015 -4.727099 21.076393 18.327826 -0.000001 -0.000003 -0.000002 -1.359283 -16.895740 -9.169197 0.574340 2.531661 -25.560064 0.067710 -0.889075 8.710007 -0.000001 -0.000001 0.000004 0.066799 2.541864 -1.771552 0.574330 2.531646 -25.560067 0.091233 -1.030931 10.113633 0.000002 0.000001 -0.000001 -0.079289 11.343943 1.376906 0.156696 1.347271 -13.267769 0.039060 0.676061 -6.612274 -0.000001 0.000001 -0.000002 -2.454920 7.297290 14.160493 0.000000 0.000000 0.000000 82.050632 23.802215 19.508704 -0.000007 33.367393 -0.000002 -15.931037 26.703883 -8.895958 7.833042 7.095075 7.571913 7.285908 -22.249548 -2.728452 -3.878695 -19.856043 -17.665321 0.000003 -0.000004 -0.000001 0.350968 12.645976 48.306417 0.520617 -2.141527 27.324920 0.158036 1.204123 -14.952706 0.000001 -0.000000 0.000003 1.687073 -5.825070 49.552244 0.000003 -0.000002 0.000042 0.158029 1.204116 -14.952710 -0.000001 -0.000000 -0.000000 7.431436 -12.945106 39.159131 0.000003 -0.000005 0.000017 0.134066 1.110551 -13.766478 0.000000 0.000000 0.000000 -23.334581 -56.483154 60.567679 104.564220 -32.512756 1.001165 4.318239 0.239867 -31.792420 -8.456835 0.000011 -0.000015 -0.000002 0.000001 0.000002 -46.419116 23.591634 -28.900187 97.101138 17.228507 -2.283241 3.191825 1.712798 25.397765 -1.799625 0.000014 0.000014 0.000002 -0.000000 0.000001 
4.973539 5.184174 85.234741 -98.540676 0.084629 -0.048867 3.848773 -0.725854 0.572383 1.031032 -0.407030 0.091107 0.000000 0.000000 0.000000 1.036521 -0.402724 0.114033 12.329911 -0.703528 0.096693 21.499272 -3.429748 -0.164762 0.000002 -0.000000 0.000000 -0.240339 -17.364789 -6.480436 0.000000 0.000000 0.000000 63.299120 -14.213858 -43.254106 0.000001 -33.210835 -0.000002 11.917008 0.404499 4.405485 -18.975526 -6.392771 8.507211 7.278148 22.325614 2.208029 -4.727097 21.076393 18.327833 -0.000000 0.000002 -0.000000 -1.359277 -16.895747 -9.169193 0.574335 2.531650 -25.560055 0.067713 -0.889066 8.710007 0.000000 -0.000001 0.000000 0.066799 2.541851 -1.771545 0.574325 2.531651 -25.560065 0.091241 -1.030938 10.113632 0.000002 -0.000000 -0.000000 -0.079292 11.343938 1.376911 0.156700 1.347267 -13.267769 0.039059 0.676061 -6.612285 -0.000001 0.000001 -0.000002 -2.482184 7.018732 14.624700 0.000000 0.000000 0.000000 81.478536 23.186641 19.645519 -0.000001 33.245891 -0.000005 -15.507284 26.798102 -8.793881 7.793405 7.101457 7.515304 7.283428 -22.228262 -2.727026 -3.879824 -19.826764 -17.657607 -0.000000 -0.000003 0.000001 0.335962 12.653747 48.176418 0.520444 -2.141197 27.320400 0.157956 1.203822 -14.948933 0.000001 0.000001 -0.000001 1.669374 -5.809990 49.433375 0.000002 -0.000008 0.000012 0.157945 1.203799 -14.948455 0.000002 0.000000 0.000000 7.397303 -12.931449 39.055872 -0.000001 -0.000003 0.000010 0.134005 1.110278 -13.763145 -0.000001 -0.000000 -0.000000 -24.344184 -56.760699 59.775043 104.866114 -32.142597 1.055639 4.393782 0.228465 -31.982238 -8.487408 0.000014 0.000004 -0.000000 0.000001 0.000000 -45.733745 22.375560 -29.305121 96.117298 16.564646 -2.362421 2.095359 1.566662 25.878487 -1.833517 0.000007 0.000001 -0.000000 -0.000000 -0.000000 
5.019619 5.197891 85.213509 -98.529918 0.247933 0.035405 4.143046 -0.721868 0.531277 1.137652 -0.405697 0.070828 0.000000 0.000000 0.000000 1.143164 -0.402000 0.095220 12.729189 -0.700866 0.120165 22.078023 -3.388850 -0.214324 -0.000002 -0.000001 0.000000 -0.154420 -16.831181 -6.895294 0.000000 0.000000 0.000000 63.080554 -13.982376 -42.252858 0.000008 -33.293791 0.000006 11.914768 0.448079 4.394558 -18.975538 -6.392803 8.507211 7.278157 22.325640 2.208017 -4.727097 21.076400 18.327826 -0.000001 -0.000000 -0.000004 -1.359270 -16.895762 -9.169181 0.574332 2.531656 -25.560069 0.067714 -0.889065 8.710006 -0.000000 -0.000001 0.000003 0.066801 2.541844 -1.771548 0.574333 2.531666 -25.560064 0.091237 -1.030933 10.113632 0.000001 -0.000001 0.000001 -0.079290 11.343927 1.376909 0.156704 1.347268 -13.267753 0.039058 0.676068 -6.612295 0.000000 0.000000 0.000003 -2.516763 6.886651 15.038881 0.000000 0.000000 0.000000 80.629154 22.829702 19.944782 -0.000002 32.748312 -0.000002 -14.761311 26.600057 -8.650808 7.677665 7.119782 7.350155 7.276380 -22.167357 -2.722922 -3.882940 -19.742831 -17.635425 0.000002 0.000003 0.000003 0.293469 12.676143 47.797514 0.519951 -2.140240 27.307001 0.157715 1.202962 -14.937752 0.000002 -0.000000 0.000000 1.618784 -5.766386 49.086988 0.000004 -0.000004 0.000003 0.157676 1.202814 -14.935891 -0.000001 0.000000 0.000000 7.298850 -12.892073 38.754893 0.000002 -0.000003 0.000025 0.133800 1.109504 -13.753213 -0.000002 0.000000 -0.000000 -25.415303 -56.981355 58.959661 105.163364 -31.821073 1.085138 4.499088 0.219047 -32.098061 -8.497779 0.000000 0.000006 -0.000000 -0.000002 -0.000001 -44.994773 21.060045 -29.673108 95.038435 15.869106 -2.450702 0.952189 1.489472 26.348517 -1.854759 0.000009 0.000008 -0.000000 0.000000 -0.000000 
5.055116 5.213600 85.195389 -98.531817 0.392532 0.138011 4.410409 -0.730911 0.470213 1.255838 -0.410343 0.044731 0.000000 0.000000 0.000000 1.261416 -0.407324 0.070598 13.050101 -0.685839 0.139931 22.764363 -3.297649 -0.308212 -0.000003 0.000000 0.000000 -0.073221 -16.364819 -7.317486 0.000000 0.000000 0.000000 62.845834 -13.725580 -41.337230 0.000003 -33.322178 0.000005 11.894096 0.459374 4.390747 -18.975539 -6.392790 8.507214 7.278169 22.325626 2.208016 -4.727096 21.076405 18.327831 -0.000002 0.000005 -0.000002 -1.359271 -16.895757 -9.169186 0.574343 2.531649 -25.560052 0.067709 -0.889073 8.709987 -0.000002 -0.000001 0.000001 0.066801 2.541832 -1.771541 0.574331 2.531654 -25.560062 0.091227 -1.030928 10.113633 0.000002 0.000001 -0.000001 -0.079293 11.343920 1.376917 0.156704 1.347267 -13.267762 0.039054 0.676074 -6.612290 -0.000000 -0.000003 -0.000001 -2.562780 6.924874 15.366508 0.000000 0.000000 0.000000 79.650797 22.623108 20.419423 0.000005 32.127564 0.000001 -13.938551 26.344885 -8.468996 7.490614 7.148982 7.083552 7.265204 -22.071338 -2.716520 -3.887602 -19.609977 -17.600125 -0.000000 -0.000002 -0.000002 0.227426 12.712870 47.186447 0.519131 -2.138641 27.285062 0.157329 1.201506 -14.919491 -0.000001 0.000001 0.000001 1.539442 -5.696209 48.528320 0.000000 -0.000008 -0.000012 0.157239 1.201196 -14.915299 0.000002 -0.000000 0.000002 7.142413 -12.828736 38.269488 -0.000001 0.000001 0.000042 0.133492 1.108221 -13.736999 0.000001 -0.000001 0.000001 -26.504542 -57.144826 58.157360 105.457103 -31.554890 1.086106 4.626196 0.212860 -32.136901 -8.491098 -0.000004 0.000002 0.000002 -0.000001 -0.000000 -44.193773 19.623922 -30.009956 93.828344 15.269670 -2.520677 -0.235645 1.356356 26.872490 -1.853650 0.000011 0.000003 -0.000002 0.000000 0.000000 
5.080434 5.230606 85.182259 -98.547267 0.520461 0.254182 4.652890 -0.762229 0.397890 1.388003 -0.425766 0.016742 0.000000 0.000000 0.000000 1.393687 -0.423227 0.044398 13.294736 -0.660562 0.148635 23.556824 -3.182665 -0.448013 0.000002 0.000001 -0.000000 0.009489 -15.933923 -7.745201 0.000000 0.000000 0.000000 62.583207 -13.462227 -40.495338 0.000003 -33.289297 0.000013 11.854287 0.434899 4.394801 -18.975539 -6.392789 8.507221 7.278162 22.325629 2.208021 -4.727101 21.076403 18.327826 -0.000004 -0.000000 -0.000004 -1.359272 -16.895757 -9.169175 0.574337 2.531659 -25.560067 0.067717 -0.889075 8.710002 -0.000001 -0.000001 0.000001 0.066794 2.541839 -1.771539 0.574329 2.531648 -25.560071 0.091235 -1.030935 10.113631 -0.000002 0.000002 -0.000001 -0.079295 11.343932 1.376921 0.156699 1.347265 -13.267776 0.039057 0.676068 -6.612273 -0.000001 0.000001 0.000000 -2.620611 7.110671 15.598120 0.000000 0.000000 0.000000 78.640981 22.506884 21.021497 0.000004 31.831899 -0.000006 -13.009573 25.690063 -8.391384 7.236936 7.188338 6.722708 7.250477 -21.944757 -2.708053 -3.893484 -19.433994 -17.553168 -0.000000 0.000001 0.000003 0.141794 12.764526 46.360227 0.518004 -2.136475 27.254883 0.156812 1.199541 -14.894375 -0.000002 0.000001 0.000000 1.435864 -5.601200 47.772850 0.000002 -0.000002 0.000003 0.156652 1.198955 -14.887021 -0.000002 0.000000 -0.000000 6.934721 -12.742653 37.613100 0.000002 -0.000005 -0.000006 0.133065 1.106465 -13.714683 0.000002 -0.000000 0.000001 -27.609761 -57.261933 57.359731 105.759571 -31.325481 1.064515 4.773624 0.205487 -32.104454 -8.472832 0.000024 -0.000002 -0.000000 0.000001 0.000001 -43.312412 18.054160 -30.338088 92.454001 14.734882 -2.557696 -1.479959 1.198226 27.473780 -1.824200 0.000005 -0.000009 0.000001 -0.000001 0.000001 
